<?xml version="1.0" encoding="utf-8"?>
<!-- Generator: Adobe Illustrator 26.0.1, SVG Export Plug-In . SVG Version: 6.00 Build 0)  -->
<svg version="1.1" id="Layer_1" xmlns="http://www.w3.org/2000/svg" xmlns:xlink="http://www.w3.org/1999/xlink" x="0px" y="0px"
	 viewBox="0 0 555 555" style="enable-background:new 0 0 555 555;" xml:space="preserve">
<style type="text/css">
	.st0{fill:#3979FF;}
	.st1{opacity:0.7;fill:#3979FF;enable-background:new    ;}
	.st2{opacity:0.5;fill:#3979FF;enable-background:new    ;}
	.st3{fill:#FFFFFF;}
</style>
<path class="st0" d="M279.7,130.7c7.5-38.6,47.2-61.8,84.4-49.4l82.2,27.3c30.7,10.2,49.3,41.4,43.7,73.2l-41.4,235.2
	c-5.2,29.4-29.7,51.5-59.4,53.7l-93.3,6.8c-42.8,3.1-76.9-35.4-68.7-77.6L279.7,130.7z"/>
<path class="st1" d="M264.1,137.4c2.4-12.2-7-23.6-19.4-23.4l-62.6,0.8c-9.1,0.1-17,6.6-18.9,15.5l-45.7,215.3
	c-1.7,7.9,1.7,16,8.4,20.4l57.6,37.9c11.6,7.6,27.2,1.1,29.9-12.5L264.1,137.4z"/>
<path class="st2" d="M139.1,177.6c2.4-12-6.7-23.2-18.9-23.4l-18.2-0.3c-9.3-0.1-17.5,6.3-19.4,15.5l-19.1,90.1
	c-1.7,8.2,1.9,16.6,9.1,20.9l17.5,10.4c11.6,6.9,26.5,0.2,29.1-13L139.1,177.6z"/>
<path class="st3" d="M335.8,205.8c6.6-7.4,15-13.6,24.9-18.5c10.2-5.1,21.2-7.6,33.1-7.6c12.1,0,22.8,2.6,32,7.9
	c9.4,5.1,16.6,12.5,21.7,22.3c5.1,9.8,7.6,21.2,7.6,34.3c0,6.1-0.6,12.3-1.8,18.8c-2.9,16.6-8.8,31.4-17.6,44.3
	c-8.8,12.7-19.4,22.6-32,29.6c-12.5,7-25.6,10.6-39.3,10.6c-11.9,0-22.1-2.4-30.5-7.3c-8.2-4.9-14.5-11.1-18.8-18.5l-17.6,100.7
	h-41.3l42.2-240.1h41.3L335.8,205.8z M411.5,263.1c0.6-3.9,0.9-7.4,0.9-10.6c0-11.5-3.3-20.5-10-27c-6.6-6.5-15.1-9.7-25.5-9.7
	c-7.4,0-14.8,2-22,5.9c-7.2,3.7-13.5,9.2-18.8,16.4c-5.3,7.2-8.8,15.7-10.6,25.5c-0.8,5.1-1.2,8.8-1.2,11.2c0,11.5,3.3,20.5,10,27
	c6.8,6.5,15.3,9.7,25.5,9.7c7.6,0,15.1-2,22.3-5.9c7.2-3.9,13.5-9.5,18.8-16.7C406.2,281.6,409.7,273,411.5,263.1z"/>
</svg>
